<?xml version="1.0" encoding="utf-8"?>
<!-- Generator: Adobe Illustrator 15.1.0, SVG Export Plug-In . SVG Version: 6.00 Build 0)  -->
<!DOCTYPE svg PUBLIC "-//W3C//DTD SVG 1.1//EN" "http://www.w3.org/Graphics/SVG/1.1/DTD/svg11.dtd">
<svg version="1.1" xmlns="http://www.w3.org/2000/svg" xmlns:xlink="http://www.w3.org/1999/xlink" x="0px" y="0px"
	 width="841.89px" height="595.28px" viewBox="0 0 250 175" enable-background="new 0 0 841.89 595.28" xml:space="preserve">
<path fill="#00A4E4" d="M541.573,408.305l-87.54-114.864l87.425-108.288c3.516-4.979,0-10.711-7.324-10.711h-51.01
	c-3.462,0-5.672,1.902-6.998,3.425l-55.537,72.302l33.444,43.522l-33.417,45.825l55.51,76.063c1.256,1.528,3.595,3.433,7.056,3.433
	h50.572C541.573,419.012,545.048,413.278,541.573,408.305"/>
<path fill="#00245D" d="M420.589,250.168l-55.539-72.28c-1.308-1.545-3.445-3.447-6.912-3.447H307.08
	c-7.341,0-10.803,5.732-7.341,10.724l87.414,108.275l-87.465,114.864c-3.46,4.974,0,10.729,7.812,10.729h50.512
	c3.518,0,5.788-1.926,7.112-3.454l55.494-76.063l33.417-45.813L420.589,250.168z"/>
</svg>
